<svg xmlns="http://www.w3.org/2000/svg" width="142px" height="42px" viewBox="0 0 142 42"><g fill="#8191A0" fill-rule="nonzero"><path d="M80.595 29.906h-3.628V41.67h2.309v-4.068h1.32c2.748 0 4.507-1.43 4.507-3.848 0-2.419-1.76-3.848-4.508-3.848zm0 5.607h-1.32v-3.518h1.32c1.32 0 2.09.66 2.09 1.759 0 1.1-.77 1.76-2.09 1.76zM91.81 38.702c-.44.66-.99.99-1.65.99-.88 0-1.319-.55-1.319-1.65v-4.398h-2.309v4.838c0 2.089 1.1 3.298 2.969 3.298.88 0 1.759-.44 2.419-1.21l.22 1.1h1.979v-7.806h-2.31v4.838zM100.496 33.644c-.99 0-1.76.44-2.31 1.21v-5.278h-2.308V41.67h1.979l.22-1.1c.55.77 1.32 1.21 2.309 1.21 2.089 0 3.628-1.76 3.628-4.068.11-2.309-1.43-4.068-3.518-4.068zm-.55 6.157c-1.1 0-1.98-.88-1.98-2.089 0-1.21.77-2.089 1.98-2.089s1.979.88 1.979 2.089c0 1.21-.88 2.089-1.98 2.089zM105.663 29.576h2.309V41.67h-2.309zM109.731 33.754h2.309v7.806h-2.309zM110.83 29.906c-.769 0-1.319.66-1.319 1.32 0 .769.66 1.319 1.32 1.319.77 0 1.319-.66 1.319-1.32s-.55-1.32-1.32-1.32zM117.757 39.801c-1.1 0-1.979-.88-1.979-2.089 0-1.21.77-2.089 1.98-2.089.55 0 1.099.22 1.539.66l1.429-1.43c-.88-.77-1.87-1.209-2.969-1.209-2.418 0-4.178 1.76-4.178 4.068 0 2.309 1.76 4.068 4.178 4.068 1.21 0 2.31-.44 3.189-1.32l-1.43-1.429c-.66.44-1.209.77-1.759.77zM123.255 29.906c-.77 0-1.32.66-1.32 1.32 0 .769.66 1.319 1.32 1.319.77 0 1.32-.66 1.32-1.32s-.55-1.32-1.32-1.32zM122.155 33.754h2.309v7.806h-2.309zM130.511 39.801c-.66 0-.99-.44-.99-1.21v-2.748h2.53v-1.98h-2.53v-2.198h-1.868l-.22 2.199h-.11l-1.54.11v1.869h1.54v2.859c0 2.089 1.1 3.298 2.968 3.298.88 0 1.76-.33 2.42-.88l-1.1-1.649c-.33.11-.66.33-1.1.33zM138.208 29.136l-3.189 2.419.77 1.21 3.408-1.87zM137.108 33.644c-2.309 0-3.958 1.87-3.958 4.068 0 2.309 1.76 4.068 4.178 4.068a4.79 4.79 0 003.189-1.21l-1.1-1.429c-.66.66-1.32.88-2.089.88-.99 0-1.76-.55-2.089-1.54h5.827v-.769c0-2.199-1.649-4.068-3.958-4.068zm-1.869 3.188c.22-.77.88-1.429 1.87-1.429.879 0 1.538.55 1.868 1.43h-3.738zM122.705 25.618V11.435c.11-1.43-.88-2.64-2.309-2.75h-.22c-1.43 0-2.529 1.21-2.529 2.53v14.403h5.058zM90.93 25.948c2.969 0 5.607-1.21 6.817-3.629l-3.628-2.309h-.11c-.66 1.1-1.76 1.76-2.969 1.65-2.199 0-3.518-1.54-3.518-4.288 0-2.749 1.32-4.288 3.518-4.288 1.21-.11 2.419.55 2.969 1.649h.11l3.628-2.309c-1.21-2.419-3.848-3.628-6.817-3.628-5.167 0-8.356 3.628-8.356 8.576 0 4.947 3.189 8.576 8.356 8.576zM120.176 6.047s.11 0 0 0c1.76 0 3.079-1.43 3.079-3.078 0-1.65-1.43-2.969-3.079-2.969a2.956 2.956 0 00-2.968 2.969c0 1.759 1.319 3.078 2.968 3.078zM135.789 8.686c-2.31 0-4.508 1.21-5.608 3.188h-.11v-1.21c-.11-1.318-1.319-2.198-2.638-2.088-1.32.11-2.2 1.32-2.09 2.639v14.293h4.948V18.36c0-3.408 1.43-5.057 3.409-5.057 1.32 0 2.309.77 2.309 2.968v9.346h4.947V14.843c.11-3.738-1.759-6.157-5.167-6.157zM80.705 25.618V14.843c0-3.738-1.87-6.157-5.277-6.157-2.31 0-4.508 1.21-5.608 3.188h-.11v-1.1c-.11-1.319-1.32-2.198-2.529-2.088-1.319.11-2.198 1.32-2.089 2.529v14.293h4.948V18.36c0-3.408 1.43-5.057 3.408-5.057 1.32 0 2.31.77 2.31 2.968v9.346h4.947zM115.668 17.262c0-4.728-3.848-8.576-8.576-8.576-4.727 0-8.575 3.848-8.575 8.576-.22 4.508 3.188 8.356 7.696 8.576h.88c4.507.22 8.355-3.189 8.575-7.697v-.88zm-8.576 4.398c-2.198 0-3.628-1.76-3.628-4.398 0-2.639 1.32-4.398 3.628-4.398 2.2 0 3.629 1.759 3.629 4.398-.11 2.639-1.43 4.398-3.629 4.398zM55.307 8.686h-.88c-4.507-.22-8.355 3.188-8.575 7.696v.88c-.22 4.508 3.188 8.356 7.696 8.576h.88a8.298 8.298 0 008.685-7.697v-.88c.11-4.507-3.298-8.355-7.806-8.575zm-.88 12.974c-2.198 0-3.628-1.76-3.628-4.398 0-2.639 1.32-4.398 3.629-4.398 2.198 0 3.628 1.759 3.628 4.398-.11 2.639-1.43 4.398-3.628 4.398zM37.276 8.686c-2.09 0-3.958.99-5.168 2.639h-.11V3.408C32.108 1.98 31.118.77 29.8.66c-1.32-.11-2.638.88-2.748 2.199v22.759h4.617v-2.529h.11c1.1 1.87 3.189 2.859 5.388 2.859 4.288 0 7.146-3.629 7.146-8.686 0-5.058-2.748-8.576-7.036-8.576zm-1.65 12.974c-2.198 0-3.628-1.76-3.628-4.398 0-2.639 1.32-4.398 3.628-4.398 2.2 0 3.629 1.759 3.629 4.398s-1.43 4.398-3.629 4.398zM18.475 21.88c-.77 0-1.65-.33-2.2-.88l8.797-6.267c-.88-3.628-4.288-6.157-8.027-5.937a7.793 7.793 0 00-7.806 7.586v.33c0 1.43.22 2.749.77 4.068-.88.55-1.76.99-2.749 1.1-1.54 0-2.199-.88-2.199-2.42V3.299C5.171 1.98 4.291.66 2.862.55 1.432.44.223 1.43.003 2.749V19.57c-.11 3.298 2.42 6.157 5.718 6.267h.66c2.088-.11 4.177-.77 5.827-2.09a8.624 8.624 0 005.607 2.09c4.288 0 6.817-1.87 8.136-4.398l-3.298-2.42a5.013 5.013 0 01-4.178 2.86zm-4.838-5.608c-.11-1.869 1.21-3.518 3.078-3.628h.22c1.1 0 2.09.55 2.53 1.43l-5.498 4.067c-.22-.55-.33-1.21-.33-1.869z"/></g></svg>
